<svg version="1.1" xmlns="http://www.w3.org/2000/svg" xmlns:xlink="http://www.w3.org/1999/xlink" style="" xml:space="preserve" width="93.30508470535278" height="88.61016941070557"><rect id="backgroundrect" width="100%" height="100%" x="0" y="0" fill="none" stroke="none" style="" class=""/>
<style type="text/css">
	.st0{fill-rule:evenodd;clip-rule:evenodd;fill:#3B4652;}
	.st1{fill:#00b9eb;}
</style>



<g class="currentLayer" style=""><title>Layer 1</title><g id="svg_21" class="selected" fill="#67e767" fill-opacity="1" stroke="none">
	<g id="svg_22" fill="#67e767" fill-opacity="1" stroke="none" stroke-opacity="1">
		<path class="st1" d="M38.15033006668091,86.17627000808716 h-12.77000904083252 v-6.0617828369140625 h12.77000904083252 V86.17627000808716 z" id="svg_23" fill="#67e767" fill-opacity="1" stroke="none" stroke-opacity="1"/>
	</g>
	<g id="svg_24" fill="#67e767" fill-opacity="1" stroke="none" stroke-opacity="1">
		<polygon class="st1" points="12.70930528640747,86.17627000808716 3.7999963760375977,86.17627000808716 3.7999963760375977,77.08359575271606 9.739534854888916,77.08359575271606 9.739534854888916,80.1144871711731 12.70930528640747,80.1144871711731 " id="svg_25" fill="#67e767" fill-opacity="1" stroke="none" stroke-opacity="1"/>
	</g>
	<g id="svg_26" fill="#67e767" fill-opacity="1" stroke="none" stroke-opacity="1">
		<path class="st1" d="M9.739534854888916,64.15178728103638 h-5.939539432525635 v-13.032833099365234 h5.939539432525635 V64.15178728103638 zM9.739534854888916,38.18716478347778 h-5.939539432525635 V25.154322147369385 h5.939539432525635 V38.18716478347778 z" id="svg_27" fill="#67e767" fill-opacity="1" stroke="none" stroke-opacity="1"/>
	</g>
	<g id="svg_28" fill="#67e767" fill-opacity="1" stroke="none" stroke-opacity="1">
		<polygon class="st1" points="9.739534854888916,12.121487140655518 3.7999963760375977,12.121487140655518 3.7999963760375977,3.028812885284424 12.70930528640747,3.028812885284424 12.70930528640747,9.090595722198486 9.739534854888916,9.090595722198486 " id="svg_29" fill="#67e767" fill-opacity="1" stroke="none" stroke-opacity="1"/>
	</g>
	<g id="svg_30" fill="#67e767" fill-opacity="1" stroke="none" stroke-opacity="1">
		<path class="st1" d="M63.69032335281372,9.090595722198486 h-12.77000904083252 v-6.0617828369140625 h12.77000904083252 V9.090595722198486 zM38.15033006668091,9.090595722198486 h-12.77000904083252 v-6.0617828369140625 h12.77000904083252 V9.090595722198486 z" id="svg_31" fill="#67e767" fill-opacity="1" stroke="none" stroke-opacity="1"/>
	</g>
	<g id="svg_32" fill="#67e767" fill-opacity="1" stroke="none" stroke-opacity="1">
		<polygon class="st1" points="85.27066850662231,12.121487140655518 79.33112382888794,12.121487140655518 79.33112382888794,9.090595722198486 76.36135911941528,9.090595722198486 76.36135911941528,3.028812885284424 85.27066850662231,3.028812885284424 " id="svg_33" fill="#67e767" fill-opacity="1" stroke="none" stroke-opacity="1"/>
	</g>
	<g id="svg_34" fill="#67e767" fill-opacity="1" stroke="none" stroke-opacity="1">
		<path class="st1" d="M85.27066850662231,38.18716478347778 h-5.939539432525635 V25.154322147369385 h5.939539432525635 V38.18716478347778 z" id="svg_35" fill="#67e767" fill-opacity="1" stroke="none" stroke-opacity="1"/>
	</g>
	<g id="svg_36" fill="#67e767" fill-opacity="1" stroke="none" stroke-opacity="1">
		<g id="svg_37" fill="#67e767" fill-opacity="1" stroke="none" stroke-opacity="1">
			<path class="st1" d="M70.71878099441528,39.09642839431763 c-0.6929462552070618,0.4041188657283783 -1.2869001626968384,1.010297179222107 -1.682869553565979,1.7175052165985107 c-1.2869001626968384,-1.4144160747528076 -3.266746759414673,-2.020594358444214 -5.1476006507873535,-1.5154457092285156 c-1.2869001626968384,0.3030891716480255 -2.3758158683776855,1.212356686592102 -2.9697697162628174,2.222653865814209 c-1.2869001626968384,-1.4144160747528076 -3.266746759414673,-2.020594358444214 -5.1476006507873535,-1.5154457092285156 c-1.4848848581314087,0.4041188657283783 -2.5738003253936768,1.4144160747528076 -3.266746759414673,2.7278025150299072 c-2.2768235206604004,-6.364872455596924 -4.850624084472656,-12.729744911193848 -7.8203935623168945,-18.99358558654785 c-1.1879079341888428,-2.62677264213562 -4.3556623458862305,-3.8391292095184326 -6.929462432861328,-2.62677264213562 c-2.5738003253936768,1.212356686592102 -3.7617082595825195,4.344277858734131 -2.5738003253936768,7.072080135345459 c3.7617082595825195,8.1834077835083 6.929462432861328,16.265785217285156 9.602254867553711,24.44919204711914 c0.6929462552070618,2.121623992919922 1.3858925104141235,4.344277858734131 2.07883882522583,6.465901851654053 c-2.672792673110962,-2.222653865814209 -5.642562389373779,-4.344277858734131 -9.503263473510742,-6.364872455596924 c-2.5738003253936768,-1.31338632106781 -5.7415547370910645,-0.3030891716480255 -7.028454780578613,2.323683500289917 c-1.2869001626968384,2.62677264213562 -0.2969769835472107,5.859724044799805 2.2768235206604004,7.173110008239746 c12.67101764678955,7.37516975402832 19.105518341064453,17.781230926513672 23.659164428710938,23.843013763427734 c12.07706356048584,0.606178343296051 28.113819122314453,-5.859724044799805 30.78661346435547,-11.113268852233887 c-1.0889155864715576,-11.012238502502441 -3.464731216430664,-24.348161697387695 -9.107294082641602,-33.94598388671875 C76.36135911941528,38.38922166824341 73.0945897102356,37.580971240997314 70.71878099441528,39.09642839431763 z" id="svg_38" fill="#67e767" fill-opacity="1" stroke="none" stroke-opacity="1"/>
		</g>
	</g>
</g></g></svg>
