<?xml version="1.0" encoding="iso-8859-1"?>
<!-- Generator: Adobe Illustrator 19.0.0, SVG Export Plug-In . SVG Version: 6.00 Build 0)  -->
<svg version="1.1" id="Layer_1" xmlns="http://www.w3.org/2000/svg" xmlns:xlink="http://www.w3.org/1999/xlink" x="0px" y="0px"
	 viewBox="0 0 96 16" style="enable-background:new 0 0 96 16;" xml:space="preserve">
<g id="XMLID_2_">
	<g id="XMLID_14_">
		<path id="XMLID_32_" style="fill:#FFE403;" d="M64.973,14.75c-0.257,0-0.489-0.137-0.62-0.365
			c-0.139-0.241-0.138-0.528,0.003-0.768L71.383,1.61C71.515,1.384,71.745,1.25,72,1.25s0.485,0.134,0.617,0.359l7.027,12.008
			c0.141,0.239,0.142,0.526,0.003,0.768c-0.131,0.229-0.363,0.365-0.62,0.365H64.973z"/>
		<g id="XMLID_28_">
			<path id="XMLID_29_" style="fill:#EFB316;" d="M72,1.5c0.079,0,0.277,0.023,0.401,0.236l7.027,12.008
				c0.094,0.161,0.095,0.354,0.002,0.516c-0.041,0.072-0.163,0.24-0.403,0.24H64.973c-0.24,0-0.362-0.168-0.403-0.24
				c-0.093-0.162-0.092-0.355,0.002-0.516l7.027-12.008C71.723,1.523,71.921,1.5,72,1.5 M72,1c-0.322,0-0.644,0.161-0.833,0.484
				L64.14,13.492C63.751,14.155,64.218,15,64.973,15h14.054c0.755,0,1.221-0.845,0.833-1.508L72.833,1.484
				C72.644,1.161,72.322,1,72,1L72,1z"/>
		</g>
	</g>
	<rect id="XMLID_13_" x="71" y="5" style="fill:#191919;" width="2" height="5"/>
	<rect id="XMLID_12_" x="71" y="11" style="fill:#191919;" width="2" height="2"/>
</g>
<g id="XMLID_11_">
	<g id="XMLID_10_">
		<g id="XMLID_37_">
			<path id="XMLID_38_" style="fill:#FFFFFF;" d="M88,2.04L95.027,14l-14.024-0.003L88,2.04 M88,1c-0.322,0-0.644,0.161-0.833,0.484
				L80.14,13.492C79.751,14.155,80.218,15,80.973,15h14.054c0.755,0,1.221-0.845,0.833-1.508L88.833,1.484
				C88.644,1.161,88.322,1,88,1L88,1z"/>
		</g>
	</g>
	<rect id="XMLID_9_" x="87" y="5" style="fill:#FFFFFF;" width="2" height="5"/>
	<rect id="XMLID_8_" x="87" y="11" style="fill:#FFFFFF;" width="2" height="2"/>
</g>
<g id="XMLID_16_">
	<path id="XMLID_35_" style="fill:#FFFFFF;" d="M56,1.5c3.584,0,6.5,2.916,6.5,6.5s-2.916,6.5-6.5,6.5s-6.5-2.916-6.5-6.5
		S52.416,1.5,56,1.5 M56,0c-4.418,0-8,3.582-8,8s3.582,8,8,8s8-3.582,8-8S60.418,0,56,0L56,0z"/>
</g>
<polyline id="XMLID_15_" style="fill:none;stroke:#FFFFFF;stroke-width:2;stroke-linecap:round;stroke-miterlimit:10;" points="
	55,5 57.5,8 55,11 "/>
<g id="XMLID_18_">
	<path id="XMLID_49_" style="fill:#EAEAEA;" d="M40,15.25c-3.998,0-7.25-3.252-7.25-7.25S36.002,0.75,40,0.75S47.25,4.002,47.25,8
		S43.998,15.25,40,15.25z"/>
	<path id="XMLID_46_" style="fill:#BABABA;" d="M40,1.5c3.584,0,6.5,2.916,6.5,6.5s-2.916,6.5-6.5,6.5s-6.5-2.916-6.5-6.5
		S36.416,1.5,40,1.5 M40,0c-4.418,0-8,3.582-8,8s3.582,8,8,8s8-3.582,8-8S44.418,0,40,0L40,0z"/>
</g>
<polyline id="XMLID_17_" style="fill:none;stroke:#BABABA;stroke-width:2;stroke-linecap:round;stroke-miterlimit:10;" points="
	39,5 41.5,8 39,11 "/>
<g id="XMLID_20_">
	<path id="XMLID_59_" style="fill:#DCFFDC;" d="M24,15.25c-3.998,0-7.25-3.252-7.25-7.25c0-3.998,3.252-7.25,7.25-7.25
		S31.25,4.002,31.25,8C31.25,11.998,27.998,15.25,24,15.25z"/>
	<path id="XMLID_56_" style="fill:#1AB81A;" d="M24,1.5c3.584,0,6.5,2.916,6.5,6.5s-2.916,6.5-6.5,6.5s-6.5-2.916-6.5-6.5
		S20.416,1.5,24,1.5 M24,0c-4.418,0-8,3.582-8,8s3.582,8,8,8s8-3.582,8-8S28.418,0,24,0L24,0z"/>
</g>
<polyline id="XMLID_19_" style="fill:none;stroke:#1AB81A;stroke-width:2;stroke-linecap:round;stroke-miterlimit:10;" points="
	23,5 25.5,8 23,11 "/>
<g id="XMLID_22_">
	<path id="XMLID_63_" style="fill:#FFD9DD;" d="M8,15.25c-3.998,0-7.25-3.252-7.25-7.25S4.002,0.75,8,0.75S15.25,4.002,15.25,8
		S11.998,15.25,8,15.25z"/>
	<path id="XMLID_60_" style="fill:#D71515;" d="M8,1.5c3.584,0,6.5,2.916,6.5,6.5s-2.916,6.5-6.5,6.5S1.5,11.584,1.5,8
		S4.416,1.5,8,1.5 M8,0C3.582,0,0,3.582,0,8s3.582,8,8,8s8-3.582,8-8S12.418,0,8,0L8,0z"/>
</g>
<polyline id="XMLID_21_" style="fill:none;stroke:#D71515;stroke-width:2;stroke-linecap:round;stroke-miterlimit:10;" points="7,5 
	9.5,8 7,11 "/>
</svg>
